<svg xmlns="http://www.w3.org/2000/svg" width="121" height="123" fill="none" viewBox="0 0 121 123">
    <path fill="#ccc" fill-rule="evenodd" d="M17.38 97.465c-.251-.331-.58-.595-.983-.79-.405-.195-.793-.293-1.17-.293-.195 0-.39.017-.59.053-.199.037-.378.104-.537.204-.16.101-.294.23-.402.391-.108.159-.163.364-.163.612 0 .213.044.39.13.533.084.141.21.266.375.373.164.105.362.203.59.29.226.09.484.182.768.277.41.14.836.298 1.281.47.443.171.848.399 1.212.683.365.283.667.636.906 1.055.239.421.358.943.358 1.571 0 .721-.128 1.345-.385 1.87-.255.528-.6.963-1.032 1.306-.433.343-.928.597-1.486.762-.559.166-1.133.248-1.726.248-.865 0-1.701-.157-2.51-.469-.81-.313-1.48-.76-2.016-1.339l1.914-2.023c.295.378.685.695 1.17.949.483.255.964.38 1.442.38.218 0 .428-.022.632-.07.206-.047.386-.124.538-.231.155-.105.276-.248.367-.426.092-.178.138-.39.138-.638 0-.236-.058-.438-.171-.603-.115-.166-.277-.316-.486-.452-.211-.136-.474-.26-.787-.373-.314-.114-.669-.234-1.067-.363-.387-.132-.765-.285-1.136-.463-.37-.177-.7-.405-.99-.682-.29-.278-.525-.616-.7-1.012-.177-.395-.265-.878-.265-1.445 0-.698.136-1.295.408-1.793.274-.497.633-.904 1.078-1.225.443-.318.944-.551 1.502-.7.558-.148 1.122-.222 1.691-.222.684 0 1.38.131 2.093.392.71.26 1.334.644 1.869 1.153l-1.86 2.04zM27.16 102.424c0-.279-.045-.552-.133-.82-.09-.266-.218-.501-.385-.704-.167-.204-.373-.37-.619-.498-.245-.128-.529-.192-.852-.192-.323 0-.607.064-.85.192-.246.128-.45.294-.611.498-.16.203-.284.438-.367.704-.085.268-.127.541-.127.82 0 .28.042.553.127.82.083.268.208.508.375.724.167.215.373.386.619.513.245.129.529.193.852.193.323 0 .607-.064.852-.193.244-.127.45-.298.617-.513.168-.216.293-.456.377-.724.083-.267.125-.54.125-.82zm2.64 0c0 .71-.123 1.352-.368 1.927-.246.576-.578 1.063-1.002 1.465-.424.4-.914.712-1.47.932-.558.22-1.154.332-1.789.332-.624 0-1.216-.112-1.778-.332-.563-.22-1.054-.532-1.47-.932-.418-.402-.75-.889-.995-1.465-.245-.575-.368-1.217-.368-1.927 0-.708.123-1.348.368-1.917.246-.57.577-1.053.994-1.448.417-.394.908-.696 1.471-.906.562-.208 1.154-.313 1.778-.313.635 0 1.23.105 1.79.313.555.21 1.045.512 1.469.906.424.395.756.878 1.002 1.448.245.569.368 1.209.368 1.917zM36.95 106.42h-3.08l-3.41-8.58h3.148l1.828 5.565h.053l1.826-5.565h3.045l-3.41 8.58zM47.1 103.057h-.35c-.3 0-.604.016-.91.045-.306.029-.578.085-.817.165-.24.084-.437.204-.593.361-.155.158-.233.367-.233.624 0 .164.037.304.108.422.074.116.164.21.276.28.112.072.24.121.384.151.144.028.284.044.416.044.556 0 .981-.162 1.276-.483.295-.323.442-.76.442-1.31v-.299zm-5.02-3.742c.488-.492 1.059-.86 1.709-1.106.651-.246 1.314-.369 1.993-.369.7 0 1.292.09 1.776.271.483.183.875.463 1.175.843.301.381.52.861.66 1.442.14.58.207 1.268.207 2.064v4.41h-2.5v-.931h-.05c-.212.362-.532.644-.96.844-.428.198-.892.297-1.392.297-.334 0-.678-.047-1.034-.14-.357-.094-.68-.246-.976-.456-.295-.212-.536-.494-.724-.843-.19-.352-.284-.786-.284-1.301 0-.632.164-1.143.491-1.528.328-.386.75-.685 1.268-.897.516-.21 1.092-.352 1.725-.422.634-.069 1.252-.105 1.851-.105v-.141c0-.433-.144-.752-.433-.957-.29-.205-.645-.308-1.068-.308-.389 0-.763.09-1.124.265-.361.174-.671.386-.926.632l-1.383-1.564zM55.54 105.099c0 .568-.192 1.039-.579 1.416-.385.377-.846.565-1.381.565-.274 0-.533-.051-.775-.151-.242-.102-.453-.24-.636-.414-.183-.175-.328-.381-.43-.617-.105-.235-.159-.495-.159-.777 0-.269.054-.527.158-.768.103-.244.248-.456.43-.636.184-.183.395-.328.637-.436.242-.106.5-.161.775-.161.535 0 .996.188 1.381.565.387.377.579.848.579 1.414zM64.498 106.42v-4.966h-4.716v4.966H56.86V94.54h2.922v4.497h4.716V94.54h2.922v11.88h-2.922zM75.951 101.465c0-.452-.145-.842-.435-1.167-.291-.325-.727-.487-1.308-.487-.286 0-.547.041-.784.13-.237.086-.445.207-.623.357-.178.151-.32.329-.427.532-.107.203-.166.415-.178.635h3.755zm2.689 1.098v.349c0 .117-.007.227-.017.332h-6.428c.025.244.098.464.224.663.124.198.284.369.479.513.197.146.415.259.659.34.244.082.495.123.756.123.464 0 .855-.085 1.177-.253.32-.169.58-.386.782-.654l2.029 1.256c-.415.593-.964 1.048-1.645 1.368-.684.319-1.476.48-2.377.48-.665 0-1.294-.102-1.888-.305-.593-.203-1.112-.5-1.557-.889-.446-.39-.796-.87-1.05-1.439-.256-.569-.384-1.221-.384-1.953 0-.708.124-1.35.374-1.926.249-.575.588-1.063 1.015-1.464.427-.402.93-.712 1.514-.934.581-.22 1.21-.33 1.886-.33.654 0 1.252.107 1.799.322.544.215 1.013.527 1.406.933.391.407.698.9.917 1.481.218.581.329 1.245.329 1.987zM86.04 103.057h-.35c-.3 0-.604.016-.91.045-.306.029-.578.085-.817.165-.24.084-.437.204-.593.361-.155.158-.233.367-.233.624 0 .164.037.304.108.422.073.116.164.21.276.28.112.072.24.121.384.151.144.028.284.044.416.044.556 0 .981-.162 1.276-.483.295-.323.442-.76.442-1.31v-.299zm-5.02-3.742c.488-.492 1.059-.86 1.709-1.106.651-.246 1.314-.369 1.993-.369.7 0 1.291.09 1.776.271.483.183.875.463 1.175.843.301.381.52.861.66 1.442.14.58.207 1.268.207 2.064v4.41h-2.5v-.931h-.05c-.212.362-.532.644-.96.844-.428.198-.892.297-1.392.297-.334 0-.678-.047-1.034-.14-.357-.094-.68-.246-.976-.456-.295-.212-.536-.494-.724-.843-.19-.352-.284-.786-.284-1.301 0-.632.164-1.143.491-1.528.328-.386.75-.685 1.268-.897.516-.21 1.092-.352 1.725-.422.634-.069 1.252-.105 1.851-.105v-.141c0-.433-.144-.752-.433-.957-.29-.205-.645-.308-1.068-.308-.388 0-.763.09-1.124.265-.361.174-.671.386-.925.632l-1.385-1.564z" clip-rule="evenodd"/>
    <!-- <mask id="aex28kxkva" width="101" height="92" x="10" y="16" maskUnits="userSpaceOnUse">
        <path fill="#fff" fill-rule="evenodd" d="M10 107.08h100.98V16H10v91.08z" clip-rule="evenodd"/>
    </mask> -->
    <g fill="#ccc" fill-rule="evenodd" clip-rule="evenodd" mask="url(#aex28kxkva)">
        <path d="M90.52 106.42h3.3v-13.2h-3.3v13.2zM98.916 100.289v3.34c0 .409.085.716.25.921.168.205.465.308.897.308.149 0 .305-.012.472-.035.166-.024.304-.058.415-.106l.038 2.101c-.21.069-.474.131-.796.184-.32.052-.641.078-.961.078-.616 0-1.134-.073-1.552-.218-.42-.146-.755-.357-1.009-.632-.253-.275-.434-.603-.546-.984-.11-.379-.165-.803-.165-1.272v-3.685H94.48v-2.136h1.46V95.86h2.976v2.293h2.164v2.136h-2.164zM108.097 106.42v-4.714c0-.244-.017-.479-.053-.699-.036-.221-.102-.416-.2-.585-.1-.169-.231-.302-.394-.401-.163-.1-.374-.15-.629-.15-.5 0-.886.179-1.154.533-.267.355-.401.795-.401 1.319v4.697H102.4v-13.2h2.866v5.605h.034c.199-.35.513-.662.944-.935.431-.273.949-.41 1.556-.41.594 0 1.091.105 1.494.315.401.209.727.48.978.811.25.332.431.713.542 1.144.11.431.166.861.166 1.293v5.377h-2.883zM72.04 62.86c0-1.083-.885-1.958-1.98-1.98 1.095.022 1.98.897 1.98 1.98z"/>
        <path d="M71.967 62.24c0 6.42-5.237 11.646-11.686 11.677-1.014-.009-1.837-.828-1.837-1.838 0-1.016.83-1.842 1.851-1.842 4.434 0 8.041-3.587 8.041-7.997 0-1.003.812-1.814 1.815-1.834 1.004.02 1.816.831 1.816 1.834zM68.76 33.345c-1.03 1.023-1.062 2.657-.071 3.72.503.537 1.187.842 1.931.856.775-.004 1.431-.268 1.951-.785l5.313-5.284.095-.093-.196-.922c-1.156-5.438-4.862-10.22-9.915-12.792C65.24 16.707 62.3 16 59.365 16c-10.382 0-18.828 8.4-18.828 18.726 0 3.197.843 6.368 2.437 9.168 0 0 .549.826.526.826 1.702 2.642 3.997 4.888 6.735 6.506l.584.46c2.48 1.752 1.234 5.637-1.808 5.637H41.06c-.454 1.595-.699 3.276-.699 5.016 0 10.13 8.256 18.341 18.441 18.341l.036-.002.036.002c10.185 0 18.441-8.211 18.441-18.341 0-5.509-2.445-10.446-6.31-13.808l-12.13-11.813-.037.035-.036-.035-5.891 5.737c-.793.629-1.521.857-2.167.867-.078-.001-.158.002-.233-.005l-.068-.008c-1.472-.175-2.422-1.466-2.535-1.613-1.952-3.184-2.483-6.925-1.494-10.54 1.236-4.514 4.823-8.082 9.362-9.31 5.241-1.42 10.791.399 14.124 4.6.137.245.297.457.447.597.28.393.513.755.713 1.105.625 1.093.442 2.471-.445 3.353l-1.853 1.844z"/>
    </g>
</svg>
